<svg width="24" height="26" viewBox="0 0 24 26" fill="none" xmlns="http://www.w3.org/2000/svg">
<path d="M6 16L9 16" stroke="#212135" stroke-width="1.5" stroke-linecap="round" stroke-linejoin="round"/>
<path d="M6 20L9 20" stroke="#212135" stroke-width="1.5" stroke-linecap="round" stroke-linejoin="round"/>
<path fill-rule="evenodd" clip-rule="evenodd" d="M8 0.25C8.41421 0.25 8.75 0.585786 8.75 1V2.10258C9.72676 2.03088 10.8068 2 12 2C13.1932 2 14.2732 2.03088 15.25 2.10258V1C15.25 0.585786 15.5858 0.25 16 0.25C16.4142 0.25 16.75 0.585786 16.75 1V2.25688C21.579 2.91868 23.3766 5.01188 23.8563 10.25C23.8786 10.4932 23.898 10.7431 23.9147 11C23.9306 11.2434 23.9441 11.4929 23.9553 11.7489C23.9861 12.4504 24 13.1997 24 14C24 14.8 23.9861 15.5491 23.9554 16.2503C23.9441 16.5065 23.9306 16.7564 23.9147 17C23.898 17.2561 23.8787 17.5053 23.8565 17.7477C23.3453 23.3353 21.3353 25.3453 15.7477 25.8565C15.5053 25.8787 15.2561 25.898 15 25.9147C14.7564 25.9306 14.5065 25.9441 14.2503 25.9554C13.5491 25.9861 12.8 26 12 26C2.118 26 0 23.882 0 14C0 13.1997 0.0138905 12.4504 0.0446703 11.7489C0.0559026 11.4929 0.0693841 11.2434 0.0852604 11C0.10202 10.7431 0.121448 10.4932 0.143716 10.25C0.623404 5.01188 2.42099 2.91868 7.25 2.25688V1C7.25 0.585786 7.58579 0.25 8 0.25ZM7.25 3.77257C5.6701 4.0069 4.58429 4.39733 3.81256 4.9631C2.66179 5.80675 1.94137 7.26385 1.65043 10.25H22.3496C22.0586 7.26385 21.3382 5.80675 20.1874 4.9631C19.4157 4.39733 18.3299 4.0069 16.75 3.77257V5C16.75 5.41421 16.4142 5.75 16 5.75C15.5858 5.75 15.25 5.41421 15.25 5V3.60789C14.3104 3.53517 13.2346 3.5 12 3.5C10.7654 3.5 9.68957 3.53517 8.75 3.60789V5C8.75 5.41421 8.41421 5.75 8 5.75C7.58579 5.75 7.25 5.41421 7.25 5V3.77257ZM21.4933 17.806C21.7976 17.7657 22.0868 17.7408 22.3518 17.7264C22.101 20.3241 21.5266 21.7636 20.6451 22.6451C19.7636 23.5266 18.3241 24.101 15.7264 24.3518C15.7408 24.0868 15.7657 23.7976 15.806 23.4933C15.9842 22.1475 16.4494 20.6113 17.5303 19.5303C18.6113 18.4494 20.1475 17.9842 21.4933 17.806ZM14.319 23.2964C14.2636 23.7148 14.2339 24.1069 14.2198 24.4552C13.5358 24.4859 12.7975 24.5 12 24.5C9.56374 24.5 7.70837 24.3675 6.28145 24.0504C4.87157 23.737 3.97359 23.2638 3.35491 22.6451C2.73623 22.0264 2.26295 21.1284 1.94962 19.7185C1.6325 18.2916 1.5 16.4363 1.5 14C1.5 13.1908 1.51452 12.4425 1.54612 11.75H22.4539C22.4855 12.4425 22.5 13.1908 22.5 14C22.5 14.7975 22.4859 15.5358 22.4552 16.2198C22.1069 16.2339 21.7148 16.2636 21.2964 16.319C19.8099 16.5158 17.8887 17.0506 16.4697 18.4697C15.0506 19.8887 14.5158 21.8099 14.319 23.2964Z" fill="#212135"/>
</svg>
