<svg width="18" height="18" viewBox="0 0 18 18" fill="none" xmlns="http://www.w3.org/2000/svg">
<path d="M3 13.5V8.25C3 5.3505 5.68629 3 9 3C12.3137 3 15 5.3505 15 8.25V13.5" stroke="#898F96" stroke-linecap="round"/>
<path d="M6.75 12.9583C6.75 11.9228 5.91053 11.0833 4.875 11.0833V11.0833C3.83947 11.0833 3 11.9228 3 12.9583V13.875C3 14.9105 3.83947 15.75 4.875 15.75V15.75C5.91053 15.75 6.75 14.9105 6.75 13.875V12.9583Z" stroke="#898F96"/>
<rect x="11.25" y="11.0833" width="3.75" height="4.66667" rx="1.875" stroke="#898F96"/>
<path d="M15 12.75H15.55C15.6605 12.75 15.75 12.8395 15.75 12.95V14.55C15.75 14.6605 15.6605 14.75 15.55 14.75H15" stroke="#898F96" stroke-linecap="round"/>
<path d="M3 12.75H2.45C2.33954 12.75 2.25 12.8395 2.25 12.95V14.55C2.25 14.6605 2.33954 14.75 2.45 14.75H3" stroke="#898F96" stroke-linecap="round"/>
</svg>
