<svg width="32" height="32" viewBox="0 0 32 32" fill="none" xmlns="http://www.w3.org/2000/svg">
<path d="M26 19.5C26 26.6797 20.4183 28 16 28C11.5817 28 6 25.6797 6 18.5C6 11.3203 12.0817 2.5 16.5 2.5C20.9183 2.5 26 12.3203 26 19.5Z" fill="#FF929D"/>
<path d="M26 18C26 9 16 2 16 2C16 2 6 9 6 18C6 20.6522 7.05357 23.1957 8.92893 25.0711C10.8043 26.9464 13.3478 28 16 28C18.6522 28 21.1957 26.9464 23.0711 25.0711C24.9464 23.1957 26 20.6522 26 18Z" stroke="white" stroke-linecap="round" stroke-linejoin="round"/>
<path d="M17.0151 23.902C18.2383 23.6941 19.3667 23.1115 20.2445 22.2348C21.1224 21.358 21.7063 20.2303 21.9157 19.0074" stroke="white" stroke-linecap="round" stroke-linejoin="round"/>
</svg>
