<svg width="21" height="20" viewBox="0 0 21 20" fill="none" xmlns="http://www.w3.org/2000/svg">
<path d="M6.71777 17.7717C8.23743 18.7299 10.4767 18.2479 11.1963 16.8077" stroke="#212135" stroke-width="1.6" stroke-linecap="round" stroke-linejoin="round"/>
<path d="M16.8047 8.03846C16.8047 5.48077 14.9387 3.65384 12.3262 3.65384" stroke="#FF4444" stroke-linecap="round" stroke-linejoin="round"/>
<path d="M19.7905 8.03846C19.7905 3.65384 16.8047 0.730766 12.3262 0.730766" stroke="#FF4444" stroke-linecap="round" stroke-linejoin="round"/>
<path fill-rule="evenodd" clip-rule="evenodd" d="M5.70091 3.04557C5.69822 3.03323 5.69519 3.02089 5.69181 3.00856C5.58512 2.61872 5.17582 2.38738 4.77763 2.49183C4.37944 2.59629 4.14313 2.997 4.24983 3.38684C4.2532 3.39917 4.25688 3.41134 4.26085 3.42335C1.9404 4.39708 0.396575 7.65037 1.56595 10.5215C1.99963 11.3802 1.54758 12.014 1.07708 12.6737C0.632474 13.297 0.171387 13.9435 0.425566 14.8247C0.764802 16.0642 1.66946 16.5468 2.81925 16.6022C2.81925 16.6022 4.95669 16.8193 8.44828 15.9033C11.9399 14.9874 13.6801 13.7531 13.6801 13.7531C14.6475 13.1423 15.1753 12.2472 14.8453 11.042C14.601 10.15 13.8719 9.81561 13.1723 9.49474C12.431 9.15479 11.723 8.83006 11.66 7.87358C11.2064 4.81463 8.2078 2.7529 5.70091 3.04557ZM3.19983 12.1378C3.42024 11.4455 3.40904 10.6746 3.03351 9.8877C2.61793 8.82739 2.71524 7.66237 3.17926 6.67399C3.6603 5.64937 4.44719 4.98909 5.19063 4.79406L5.59583 4.68777C6.33927 4.49274 7.35795 4.67937 8.29783 5.33124C9.20445 5.96005 9.8837 6.92133 10.0653 8.04298C10.1414 8.90326 10.5199 9.57559 11.063 10.0688C11.5287 10.4916 12.0878 10.7483 12.4192 10.9004L12.4481 10.9136C13.2579 11.2859 13.2757 11.3587 13.2944 11.4351L13.2977 11.4482C13.3725 11.7212 13.3316 11.8556 13.2946 11.9344C13.245 12.04 13.1182 12.2099 12.8115 12.4035L12.7755 12.4263L12.7462 12.4471L12.7449 12.4479C12.7397 12.4515 12.7278 12.4595 12.7093 12.4716C12.6722 12.4958 12.6087 12.5363 12.5185 12.5902C12.3383 12.6978 12.0519 12.8588 11.6593 13.0494C10.8742 13.4305 9.66376 13.9304 8.0259 14.3601C6.38805 14.7897 5.08443 14.9493 4.20994 15.0036C3.77257 15.0307 3.44236 15.0315 3.23127 15.0265C3.12572 15.024 3.04998 15.02 3.00554 15.0172C2.98332 15.0158 2.96893 15.0147 2.96256 15.0141L2.96099 15.014L2.92502 15.0103L2.88219 15.0083C2.49887 14.9898 2.3077 14.9059 2.22026 14.846C2.16198 14.8061 2.05492 14.7173 1.9732 14.4187L1.97031 14.4081L1.96728 14.3976C1.96613 14.3936 1.9647 14.3898 1.96324 14.3859L1.96323 14.3859C1.94401 14.3347 1.91803 14.2655 2.42785 13.5495L2.44628 13.5237C2.65667 13.2285 3.01077 12.7317 3.19983 12.1378Z" fill="#212135"/>
</svg>
