<svg width="16" height="18" viewBox="0 0 16 18" fill="none" xmlns="http://www.w3.org/2000/svg">
<path d="M11.0724 5.7637C12.3172 6.52976 13.1955 7.07165 13.7964 7.54947C14.3955 8.02582 14.6004 8.34915 14.6596 8.63564C14.7093 8.876 14.7093 9.12399 14.6596 9.36435C14.6004 9.65084 14.3955 9.97418 13.7964 10.4505C13.1955 10.9283 12.3172 11.4702 11.0724 12.2363L6.82522 14.8499C5.47246 15.6824 4.51232 16.2718 3.7564 16.6199C2.99803 16.9691 2.59403 17.0019 2.30632 16.9138C2.06189 16.8389 1.83621 16.7128 1.64431 16.5438C1.41845 16.345 1.2347 15.9837 1.13463 15.1548C1.03489 14.3286 1.03366 13.202 1.03366 11.6136L1.03366 6.38637C1.03366 4.79798 1.03489 3.67136 1.13463 2.84515C1.2347 2.01626 1.41845 1.65497 1.64431 1.45615C1.83621 1.28722 2.06189 1.16111 2.30632 1.08622C2.59403 0.998061 2.99803 1.03092 3.75641 1.38012C4.51232 1.72818 5.47247 2.3176 6.82523 3.15007L11.0724 5.7637Z" fill="white" stroke="white" stroke-width="1.4"/>
</svg>
