<svg width="14" height="14" viewBox="0 0 14 14" fill="none" xmlns="http://www.w3.org/2000/svg">
<path d="M8.2854 7.00007C8.2854 7.70977 7.71007 8.2851 7.00037 8.2851C6.29066 8.2851 5.71533 7.70977 5.71533 7.00007C5.71533 6.29036 6.29066 5.71503 7.00037 5.71503C7.71007 5.71503 8.2854 6.29036 8.2854 7.00007Z" stroke="#898F96"/>
<path d="M5.99724 1.80152C6.23864 0.732827 7.76136 0.732828 8.00276 1.80152L8.08801 2.17893C8.24447 2.87155 9.03929 3.20077 9.63967 2.82165L9.96682 2.61506C10.8932 2.03008 11.9699 3.1068 11.3849 4.03318L11.1784 4.36033C10.7992 4.96072 11.1285 5.75553 11.8211 5.91199L12.1985 5.99724C13.2672 6.23864 13.2672 7.76136 12.1985 8.00276L11.8211 8.08801C11.1284 8.24447 10.7992 9.03929 11.1784 9.63967L11.3849 9.96682C11.9699 10.8932 10.8932 11.9699 9.96682 11.3849L9.63967 11.1784C9.03929 10.7992 8.24447 11.1285 8.08801 11.8211L8.00276 12.1985C7.76136 13.2672 6.23864 13.2672 5.99724 12.1985L5.91199 11.8211C5.75553 11.1284 4.96071 10.7992 4.36033 11.1784L4.03318 11.3849C3.1068 11.9699 2.03008 10.8932 2.61506 9.96682L2.82165 9.63967C3.20078 9.03929 2.87155 8.24447 2.17893 8.08801L1.80152 8.00276C0.732827 7.76136 0.732828 6.23864 1.80152 5.99724L2.17893 5.91199C2.87155 5.75553 3.20077 4.96071 2.82165 4.36033L2.61506 4.03318C2.03008 3.1068 3.1068 2.03008 4.03318 2.61506L4.36033 2.82165C4.96072 3.20078 5.75553 2.87155 5.91199 2.17893L5.99724 1.80152Z" stroke="#898F96"/>
</svg>
