<svg width="30" height="30" viewBox="0 0 30 30" fill="none" xmlns="http://www.w3.org/2000/svg">
<path d="M15 26.25C21.2132 26.25 26.25 21.2132 26.25 15C26.25 8.7868 21.2132 3.75 15 3.75C8.7868 3.75 3.75 8.7868 3.75 15C3.75 21.2132 8.7868 26.25 15 26.25Z" fill="#C7CCED" stroke="#464646" stroke-linecap="round" stroke-linejoin="round"/>
<path d="M19.8723 17.8121C19.3781 18.6669 18.6677 19.3766 17.8125 19.87C16.9573 20.3635 15.9873 20.6232 14.9999 20.6232C14.0125 20.6232 13.0425 20.3635 12.1873 19.8701C11.332 19.3767 10.6217 18.6669 10.1274 17.8122" stroke="#1F2937" stroke-width="1.5" stroke-linecap="round" stroke-linejoin="round"/>
<path d="M10.7812 14.0625C11.5579 14.0625 12.1875 13.4329 12.1875 12.6562C12.1875 11.8796 11.5579 11.25 10.7812 11.25C10.0046 11.25 9.375 11.8796 9.375 12.6562C9.375 13.4329 10.0046 14.0625 10.7812 14.0625Z" fill="#1F2937"/>
<path d="M17.8125 12.6562H20.625" stroke="#1F2937" stroke-width="2" stroke-linecap="round" stroke-linejoin="round"/>
</svg>
