<svg width="30" height="30" viewBox="0 0 30 30" fill="none" xmlns="http://www.w3.org/2000/svg">
<path d="M15 26.25C21.2132 26.25 26.25 21.2132 26.25 15C26.25 8.7868 21.2132 3.75 15 3.75C8.7868 3.75 3.75 8.7868 3.75 15C3.75 21.2132 8.7868 26.25 15 26.25Z" fill="#A3D3C0" stroke="#464646" stroke-miterlimit="10"/>
<path d="M21.5625 11.25L17.8125 15" stroke="#1F2937" stroke-width="1.5" stroke-linecap="round" stroke-linejoin="round"/>
<path d="M21.5625 15L17.8125 11.25" stroke="#1F2937" stroke-width="1.5" stroke-linecap="round" stroke-linejoin="round"/>
<path d="M12.1875 11.25L8.4375 15" stroke="#1F2937" stroke-width="1.5" stroke-linecap="round" stroke-linejoin="round"/>
<path d="M12.1875 15L8.4375 11.25" stroke="#1F2937" stroke-width="1.5" stroke-linecap="round" stroke-linejoin="round"/>
<path d="M15 22.5C15.7767 22.5 16.4062 21.8704 16.4062 21.0938C16.4062 20.3171 15.7767 19.6875 15 19.6875C14.2233 19.6875 13.5938 20.3171 13.5938 21.0938C13.5938 21.8704 14.2233 22.5 15 22.5Z" fill="#1F2937"/>
</svg>
