<svg width="30" height="30" viewBox="0 0 30 30" fill="none" xmlns="http://www.w3.org/2000/svg">
<path d="M15 26.25C21.2132 26.25 26.25 21.2132 26.25 15C26.25 8.7868 21.2132 3.75 15 3.75C8.7868 3.75 3.75 8.7868 3.75 15C3.75 21.2132 8.7868 26.25 15 26.25Z" fill="#FFE0B4" stroke="#464646" stroke-miterlimit="10"/>
<path d="M19.8723 20.6249C19.3781 19.7701 18.6677 19.0604 17.8125 18.567C16.9573 18.0736 15.9873 17.8138 14.9999 17.8138C14.0125 17.8138 13.0425 18.0735 12.1873 18.5669C11.332 19.0603 10.6217 19.7701 10.1274 20.6248" stroke="#1F2937" stroke-width="1.5" stroke-linecap="round" stroke-linejoin="round"/>
<path d="M10.7812 14.0625C11.5579 14.0625 12.1875 13.4329 12.1875 12.6562C12.1875 11.8796 11.5579 11.25 10.7812 11.25C10.0046 11.25 9.375 11.8796 9.375 12.6562C9.375 13.4329 10.0046 14.0625 10.7812 14.0625Z" fill="#1F2937"/>
<path d="M19.2188 14.0625C19.9954 14.0625 20.625 13.4329 20.625 12.6562C20.625 11.8796 19.9954 11.25 19.2188 11.25C18.4421 11.25 17.8125 11.8796 17.8125 12.6562C17.8125 13.4329 18.4421 14.0625 19.2188 14.0625Z" fill="#1F2937"/>
<path d="M10.7812 14.0625C11.5579 14.0625 12.1875 13.4329 12.1875 12.6562C12.1875 11.8796 11.5579 11.25 10.7812 11.25C10.0046 11.25 9.375 11.8796 9.375 12.6562C9.375 13.4329 10.0046 14.0625 10.7812 14.0625Z" fill="#1F2937"/>
<path d="M19.2188 14.0625C19.9954 14.0625 20.625 13.4329 20.625 12.6562C20.625 11.8796 19.9954 11.25 19.2188 11.25C18.4421 11.25 17.8125 11.8796 17.8125 12.6562C17.8125 13.4329 18.4421 14.0625 19.2188 14.0625Z" fill="#1F2937"/>
</svg>
